Coordinates
version=1
nRows=14
nColumns=40
inDegrees=yes

Units are S.I. units (second, meters, Newtons, ...)
If the header above contains a line with 'inDegrees', this indicates whether rotational values are in degrees (yes) or radians (no).

endheader
time	pelvis_tilt	pelvis_list	pelvis_rotation	pelvis_tx	pelvis_ty	pelvis_tz	hip_flexion_r	hip_adduction_r	hip_rotation_r	knee_angle_r	knee_angle_r_beta	ankle_angle_r	subtalar_angle_r	mtp_angle_r	hip_flexion_l	hip_adduction_l	hip_rotation_l	knee_angle_l	knee_angle_l_beta	ankle_angle_l	subtalar_angle_l	mtp_angle_l	lumbar_extension	lumbar_bending	lumbar_rotation	arm_flex_r	arm_add_r	arm_rot_r	elbow_flex_r	pro_sup_r	wrist_flex_r	wrist_dev_r	arm_flex_l	arm_add_l	arm_rot_l	elbow_flex_l	pro_sup_l	wrist_flex_l	wrist_dev_l
      6.25000000	     38.90527986	     -0.10773590	   -177.57351254	      0.42017170	      0.66239411	     -0.60384254	     96.55092510	    -13.29342061	      5.95539200	     66.86898426	      1.16708394	     14.98111377	      0.00000000	      0.00000000	     96.42735476	    -14.65874511	     -0.29312898	     66.34911746	      1.15801056	     11.93288288	      0.00000000	      0.00000000	    -41.10402260	     -4.83426880	      2.11685922	     59.51962428	    -20.34492889	     28.88156269	     25.57324997	     75.00019235	      0.00000000	      0.00000000	     69.47403144	     -0.60213355	     10.95556304	     13.06736745	     26.44382400	      0.00000000	      0.00000000
      6.25500000	     38.95836854	      0.31543507	   -177.24532318	      0.42019621	      0.66131567	     -0.60288206	     96.65488955	    -13.78553441	      5.44345182	     67.15266496	      1.17203511	     15.45897799	      0.00000000	      0.00000000	     96.79320194	    -14.19518938	      0.33035539	     66.54731804	      1.16146981	     12.27024542	      0.00000000	      0.00000000	    -40.84822363	     -4.16919120	      2.01644106	     59.31597277	    -19.97595873	     28.25864522	     25.51599954	     72.58271745	      0.00000000	      0.00000000	     68.85947928	     -0.93288184	     11.30135364	     13.72657259	     27.54330502	      0.00000000	      0.00000000
      6.26000000	     38.46773750	     -0.04153795	   -177.55147121	      0.41969492	      0.66139574	     -0.60374334	     96.33943583	    -13.41012545	      5.83927786	     67.37504720	      1.17591641	     15.28430296	      0.00000000	      0.00000000	     96.27315391	    -14.76692999	     -0.27467226	     66.82228746	      1.16626893	     12.15461438	      0.00000000	      0.00000000	    -41.31385581	     -4.71147944	      2.13443384	     59.67614388	    -20.81975481	     30.52458858	     25.60796421	     79.46385814	      0.00000000	      0.00000000	     69.21516534	     -0.67863182	     11.04018423	     13.31420218	     25.37766471	      0.00000000	      0.00000000
      6.26500000	     38.21510644	     -0.03086510	   -177.59255788	      0.41938564	      0.66102722	     -0.60385691	     96.18060129	    -13.42287862	      5.76322700	     67.58599571	      1.17959815	     15.36864930	      0.00000000	      0.00000000	     96.13326335	    -14.89065148	     -0.29829765	     67.04339131	      1.17012792	     12.24535703	      0.00000000	      0.00000000	    -41.46530559	     -4.72951283	      2.16347017	     59.46484638	    -20.47594164	     29.64993232	     25.51941807	     76.68295805	      0.00000000	      0.00000000	     69.19095275	     -0.76014627	     11.50671281	     13.15272644	     26.42171511	      0.00000000	      0.00000000
      6.27000000	     38.03333451	     -0.08171452	   -177.61694615	      0.41914232	      0.66046535	     -0.60394307	     96.12402790	    -13.39599430	      5.85002594	     67.83342589	      1.18391662	     15.49976121	      0.00000000	      0.00000000	     96.05139741	    -14.97363332	     -0.35027213	     67.27394851	      1.17415190	     12.38457731	      0.00000000	      0.00000000	    -41.53067356	     -4.79210950	      2.14415079	     59.24311946	    -20.25838895	     29.05212961	     25.58350134	     74.89564753	      0.00000000	      0.00000000	     69.12423719	     -0.84579808	     11.99830194	     13.02440459	     27.39518454	      0.00000000	      0.00000000
      6.27500000	     37.80894506	     -0.02685832	   -177.60965700	      0.41882292	      0.66003529	     -0.60390749	     95.98947001	    -13.46920204	      5.73452722	     68.05473145	      1.18777914	     15.60772144	      0.00000000	      0.00000000	     95.95729127	    -15.01818448	     -0.31436205	     67.48125731	      1.17777012	     12.44434962	      0.00000000	      0.00000000	    -41.65106211	     -4.73017564	      2.18655662	     59.12197494	    -20.10869912	     28.72291531	     25.49168239	     73.69260019	      0.00000000	      0.00000000	     69.04180090	     -0.88638443	     12.39699239	     12.96176690	     28.13378107	      0.00000000	      0.00000000
      6.28000000	     38.00855371	      0.37844375	   -177.41215365	      0.41889191	      0.65866563	     -0.60312672	     96.21809980	    -13.73026153	      5.35757018	     68.28453918	      1.19179004	     16.17779290	      0.00000000	      0.00000000	     96.48072285	    -14.66034351	      0.35575584	     67.71681224	      1.18188133	     12.88464041	      0.00000000	      0.00000000	    -41.22148217	     -4.17177419	      2.26036893	     58.80813682	    -19.81559776	     27.85508343	     25.50938187	     71.09487670	      0.00000000	      0.00000000	     68.27971798	     -1.18338166	     12.68754324	     13.85760144	     29.42449383	      0.00000000	      0.00000000
      6.28500000	     37.53481229	     -0.07798140	   -177.62083385	      0.41835788	      0.65877617	     -0.60389872	     95.94345132	    -13.46151526	      5.86955158	     68.49186072	      1.19540848	     15.86967459	      0.00000000	      0.00000000	     95.90083732	    -15.08672682	     -0.31313091	     67.94386496	      1.18584415	     12.63937962	      0.00000000	      0.00000000	    -41.67860915	     -4.77168144	      2.15574400	     58.79578917	    -19.71994421	     27.81992354	     25.41517912	     70.43789509	      0.00000000	      0.00000000	     68.77751969	     -1.06105339	     13.20123284	     12.89697508	     29.95802374	      0.00000000	      0.00000000
      6.29000000	     37.63596629	      0.30121410	   -177.42591335	      0.41833007	      0.65762262	     -0.60319099	     96.07803749	    -13.74538306	      5.48067017	     68.74657176	      1.19985403	     16.37961066	      0.00000000	      0.00000000	     96.30030667	    -14.76224862	      0.29075787	     68.15547435	      1.18953743	     13.05759467	      0.00000000	      0.00000000	    -41.37681410	     -4.24901960	      2.22821998	     58.47746595	    -19.51908905	     27.12177444	     25.54675946	     68.40770938	      0.00000000	      0.00000000	     68.07253110	     -1.37205997	     13.43555465	     13.82759577	     31.01627808	      0.00000000	      0.00000000
      6.29500000	     37.19131186	      0.02559608	   -177.68154324	      0.41780606	      0.65765005	     -0.60391078	     95.77452676	    -13.48232881	      5.71636251	     68.93564048	      1.20315390	     16.23323746	      0.00000000	      0.00000000	     95.84135997	    -15.21432563	     -0.13387804	     68.41308145	      1.19403352	     12.95387548	      0.00000000	      0.00000000	    -41.78235820	     -4.65881334	      2.31000988	     59.23180955	    -21.12957043	     32.43663705	     25.77845870	     78.19698853	      0.00000000	      0.00000000	     68.46625013	     -1.09263897	     13.23238968	     13.23934257	     28.19744450	      0.00000000	      0.00000000
      6.30000000	     36.92952941	      0.05403014	   -177.65833745	      0.41743708	      0.65735350	     -0.60386258	     95.60926622	    -13.58450118	      5.60601003	     69.16942992	      1.20723429	     16.28303508	      0.00000000	      0.00000000	     95.67382332	    -15.20895365	     -0.07469859	     68.59446923	      1.19719934	     13.01130808	      0.00000000	      0.00000000	    -41.95869446	     -4.60892280	      2.26926691	     59.06001604	    -20.61489700	     31.23735518	     25.51317027	     75.50675124	      0.00000000	      0.00000000	     68.41341492	     -1.19551463	     13.58013153	     13.17070817	     29.05786672	      0.00000000	      0.00000000
      6.30500000	     36.80729067	     -0.01414164	   -177.72278527	      0.41712373	      0.65672631	     -0.60404363	     95.60732213	    -13.51496936	      5.72856593	     69.37109629	      1.21075404	     16.38911813	      0.00000000	      0.00000000	     95.64265054	    -15.32685674	     -0.14104262	     68.82816630	      1.20127812	     13.13048187	      0.00000000	      0.00000000	    -41.96399525	     -4.72451701	      2.27437004	     58.78700921	    -20.34459087	     30.39146168	     25.50702950	     73.70014257	      0.00000000	      0.00000000	     68.34879354	     -1.26153814	     13.86721020	     13.05430356	     29.79430820	      0.00000000	      0.00000000
      6.31000000	     36.95079528	      0.36920257	   -177.49953597	      0.41706603	      0.65551712	     -0.60321217	     95.77782937	    -13.84934302	      5.30852440	     69.60601431	      1.21485413	     16.92437320	      0.00000000	      0.00000000	     96.09658891	    -14.93934626	      0.50102046	     69.06382959	      1.20539122	     13.60061306	      0.00000000	      0.00000000	    -41.61313960	     -4.17508265	      2.33308563	     58.42620706	    -20.06247574	     29.36199538	     25.50095465	     71.06596066	      0.00000000	      0.00000000	     67.65381376	     -1.56814713	     14.07544991	     13.91941463	     30.92616379	      0.00000000	      0.00000000
      6.31500000	     36.99131289	      0.59235400	   -177.44377968	      0.41694032	      0.65454431	     -0.60284647	     95.85564184	    -13.91221282	      5.13598343	     69.80326709	      1.21829684	     17.17156001	      0.00000000	      0.00000000	     96.37028843	    -14.78791693	      0.91604785	     69.30033174	      1.20951896	     13.78529715	      0.00000000	      0.00000000	    -41.39895804	     -3.90665064	      2.32808786	     58.22479451	    -19.67711408	     28.54180032	     25.48048792	     68.88252064	      0.00000000	      0.00000000	     67.25561039	     -1.74111748	     14.33126303	     14.20723293	     31.85518376	      0.00000000	      0.00000000
